<?xml version="1.0" encoding="utf-8"?>
<svg viewBox="-1382.66 -1197.223 3200 2400" width="3200" height="2400" xmlns="http://www.w3.org/2000/svg">
  <defs>
    <clipPath id="clippath0" transform="">
      <path d="M 0 2400 L 3200 2400 L 3200 0 L 0 0 Z" style="fill: none; clip-rule: nonzero;"/>
    </clipPath>
  </defs>
  <g transform="matrix(1, 0, 0, -1, -1382.659546, 1202.777222)">
    <g transform="">
      <path d="M 0 2400 L 3200 2400 L 3200 0 L 0 0 Z" style="fill: none;"/>
    </g>
    <g style="clip-path: url(#clippath0);">
      <g transform="translate(1600.0002 278.0506)">
        <path d="M 0 0 C -4.827 0 -9.714 0.231 -14.522 0.686 L -1460.526 137.686 C -1540.039 145.221 -1600 211.131 -1600 290.999 L -1600 1542.885 C -1600 1622.765 -1540.029 1688.676 -1460.504 1696.203 L -12.223 1833.215 C -7.426 1833.668 -2.547 1833.898 2.278 1833.898 C 7.11 1833.898 12.003 1833.668 16.821 1833.213 L 1460.547 1696.226 C 1540.048 1688.682 1600 1622.772 1600 1542.915 L 1600 290.999 C 1600 211.131 1540.038 145.221 1460.525 137.686 L 14.526 0.688 C 9.714 0.231 4.827 0 0 0" style="fill: rgb(255, 255, 255); fill-opacity: 1;"/>
      </g>
    </g>
    <g style="clip-path: url(#clippath0);">
      <g transform="translate(1599.595 427.2765)">
        <path d="M 0 0 L -1446.046 137.003 C -1448.6 137.246 -1450.386 139.208 -1450.386 141.774 L -1450.386 1393.659 C -1450.386 1396.224 -1448.602 1398.187 -1446.046 1398.427 L 2.235 1535.447 C 2.365 1535.459 2.523 1535.466 2.681 1535.466 C 2.834 1535.466 2.989 1535.459 3.143 1535.445 L 1446.856 1398.46 C 1449.412 1398.218 1451.196 1396.258 1451.196 1393.692 L 1451.196 141.774 C 1451.196 139.208 1449.41 137.246 1446.854 137.003 L 0.857 0.005 C 0.681 -0.012 0.542 -0.019 0.405 -0.019 C 0.271 -0.019 0.134 -0.012 0 0" style="fill: rgb(44, 46, 53); fill-opacity: 1;"/>
      </g>
    </g>
    <g style="clip-path: url(#clippath0);">
      <g transform="translate(2761.1624 840.5396)">
        <path d="M 0 0 L -11.483 -16.076 L -11.483 -66.14 L -44.782 -84.512 L -110.232 -84.512 L -146.978 -51.213 L -146.978 47.539 L -110.232 80.838 L -52.82 80.838 L -16.075 71.651 L -16.075 27.328 L -23.195 25.261 L -58.562 54.427 L -90.713 54.427 L -107.937 34.906 L -107.937 -38.582 L -90.713 -58.102 L -50.523 -58.102 L -50.523 -16.076 L -73.488 0 L -71.192 8.038 L -2.296 8.038 Z M -239.997 -58.102 L -228.516 -74.178 L -230.812 -82.216 L -285.929 -82.216 L -290.521 -64.992 L -345.409 24.114 L -344.49 -13.32 L -344.49 -58.102 L -333.007 -74.178 L -335.304 -82.216 L -388.124 -82.216 L -390.42 -74.178 L -378.938 -58.102 L -378.938 54.427 L -390.42 70.503 L -388.124 78.541 L -339.896 78.541 L -326.118 67.058 L -273.527 -23.885 L -274.445 9.645 L -274.445 54.427 L -285.929 70.503 L -283.633 78.541 L -230.812 78.541 L -228.516 70.503 L -239.997 54.427 Z M -477.693 -58.102 L -466.212 -74.178 L -468.509 -82.216 L -525.921 -82.216 L -528.218 -74.178 L -516.736 -58.102 L -516.736 54.427 L -528.218 70.503 L -525.921 78.541 L -468.509 78.541 L -466.212 70.503 L -477.693 54.427 Z M -660.278 -5.282 L -648.797 8.496 L -648.797 38.352 L -660.278 52.131 L -701.615 52.131 L -701.615 -5.282 Z M -749.843 78.541 L -640.759 78.541 L -609.755 50.982 L -609.755 -4.134 L -640.759 -31.692 L -701.615 -31.692 L -701.615 -58.102 L -690.363 -74.178 L -693.349 -82.216 L -749.614 -82.216 L -751.91 -74.178 L -740.658 -58.102 L -740.658 54.427 L -752.14 70.503 Z M -885.576 -24.803 L -906.016 48.686 L -928.062 -24.803 Z M -825.639 -74.178 L -827.935 -82.216 L -885.348 -82.216 L -887.644 -74.178 L -876.162 -58.102 L -879.837 -45.011 L -908.083 -48.917 L -934.265 -45.242 L -938.168 -58.102 L -926.685 -74.178 L -929.67 -82.216 L -977.208 -82.216 L -979.505 -74.178 L -971.467 -58.102 L -934.493 55.116 L -934.953 54.427 L -946.435 70.503 L -944.139 78.541 L -887.644 78.541 L -876.162 64.762 L -833.677 -58.102 Z M -1056.451 -33.988 L -1054.154 -42.026 L -1077.579 -84.512 L -1152.904 -84.512 L -1189.648 -51.213 L -1189.648 47.539 L -1152.904 80.838 L -1095.491 80.838 L -1058.747 71.651 L -1058.747 27.328 L -1066.785 25.032 L -1101.233 54.427 L -1133.385 54.427 L -1150.608 34.906 L -1150.608 -38.582 L -1133.385 -58.102 L -1103.529 -58.102 Z M -1404.384 -75.327 L -1406.68 -34.448 L -1398.642 -32.152 L -1364.195 -58.102 L -1322.856 -58.102 L -1315.968 -48.917 L -1315.968 -35.137 L -1394.049 2.756 L -1405.532 19.979 L -1405.532 53.279 L -1374.53 80.838 L -1320.561 80.838 L -1283.816 71.651 L -1283.816 30.774 L -1291.854 28.477 L -1326.302 54.427 L -1359.602 54.427 L -1366.492 45.24 L -1366.492 31.463 L -1288.409 -6.431 L -1276.928 -23.654 L -1276.928 -56.955 L -1307.93 -84.512 L -1367.64 -84.512 Z M -1533 34.906 L -1547.928 52.131 L -1585.82 52.131 L -1585.82 -55.806 L -1544.482 -55.806 L -1533 -42.026 Z M -1493.959 47.539 L -1493.959 -54.656 L -1524.962 -82.216 L -1634.047 -82.216 L -1636.344 -74.178 L -1624.861 -58.102 L -1624.861 54.427 L -1636.344 70.503 L -1634.047 78.541 L -1528.407 78.541 Z M -1723.622 -58.102 L -1712.14 -74.178 L -1714.436 -82.216 L -1769.553 -82.216 L -1774.146 -64.992 L -1829.032 24.114 L -1828.113 -13.32 L -1828.113 -58.102 L -1816.631 -74.178 L -1818.928 -82.216 L -1871.747 -82.216 L -1874.044 -74.178 L -1862.562 -58.102 L -1862.562 54.427 L -1874.044 70.503 L -1871.747 78.541 L -1823.521 78.541 L -1809.741 67.058 L -1757.151 -23.885 L -1758.07 9.645 L -1758.07 54.427 L -1769.553 70.503 L -1767.256 78.541 L -1714.436 78.541 L -1712.14 70.503 L -1723.622 54.427 Z M -2007.482 -24.803 L -2027.921 48.686 L -2049.968 -24.803 Z M -1947.544 -74.178 L -1949.84 -82.216 L -2007.253 -82.216 L -2009.549 -74.178 L -1998.066 -58.102 L -2001.741 -45.011 L -2029.988 -48.917 L -2056.169 -45.242 L -2060.073 -58.102 L -2048.591 -74.178 L -2051.576 -82.216 L -2099.113 -82.216 L -2101.41 -74.178 L -2093.372 -58.102 L -2056.398 55.116 L -2056.857 54.427 L -2068.34 70.503 L -2066.044 78.541 L -2009.549 78.541 L -1998.066 64.762 L -1955.582 -58.102 Z M -2178.358 -31.003 L -2189.151 -82.216 L -2316.608 -82.216 L -2318.904 -74.178 L -2307.422 -58.102 L -2307.422 54.427 L -2318.904 70.503 L -2316.608 78.541 L -2259.195 78.541 L -2256.899 70.503 L -2268.382 54.427 L -2268.382 -55.806 L -2221.532 -55.806 L -2186.396 -28.706 Z M -2318.904 171.528 L -2331.734 216.43 L 6.415 216.43 L -6.414 171.528 Z M 289.628 -271.489 C 289.628 -274.055 287.843 -276.018 285.286 -276.26 L -1160.71 -413.259 C -1160.887 -413.275 -1161.025 -413.282 -1161.162 -413.282 C -1161.297 -413.282 -1161.433 -413.275 -1161.567 -413.263 L -2607.613 -276.26 C -2610.167 -276.018 -2611.953 -274.055 -2611.953 -271.489 L -2611.953 980.396 C -2611.953 982.961 -2610.169 984.924 -2607.613 985.164 L -1159.332 1122.184 C -1159.202 1122.195 -1159.044 1122.203 -1158.887 1122.203 C -1158.733 1122.203 -1158.578 1122.195 -1158.425 1122.181 L 285.288 985.197 C 287.845 984.955 289.628 982.994 289.628 980.429 Z M 295.966 1097.712 L -1147.751 1234.696 C -1155.144 1235.397 -1162.585 1235.398 -1169.976 1234.699 L -2618.257 1097.685 C -2678.755 1091.962 -2724.974 1041.164 -2724.974 980.396 L -2724.974 -271.49 C -2724.974 -332.252 -2678.764 -383.047 -2618.273 -388.778 L -1172.274 -525.777 C -1164.883 -526.477 -1157.441 -526.477 -1150.05 -525.777 L 295.949 -388.778 C 356.439 -383.047 402.649 -332.252 402.649 -271.49 L 402.649 980.426 C 402.649 1041.181 356.448 1091.973 295.966 1097.712" style="fill: rgb(169, 31, 38); fill-opacity: 1;"/>
      </g>
    </g>
    <g style="clip-path: url(#clippath0);">
      <g transform="translate(1115.092 1627.1229)">
        <path d="M 0 0 L 0 -123.475 L 69.21 -123.475 L 69.21 -304.898 C 69.21 -352.922 30.524 -398.278 -17.499 -406.281 C -65.522 -398.278 -104.209 -352.922 -104.209 -304.898 L -104.209 -123.475 L -66.27 -123.475 L -36.018 -314.236 L -36.018 -123.475 L -36.018 0 L -231.545 0 L -238.395 -23.974 L -204.147 -71.92 L -204.147 -404.118 L -111.679 -486.313 L 76.681 -486.313 L 169.149 -404.118 L 169.149 -71.92 L 203.396 -23.974 L 196.547 0 Z M 1776.711 -253.43 L 1543.83 -140.414 L 1543.83 -99.317 L 1564.377 -71.92 L 1663.695 -71.92 L 1766.437 -149.319 L 1790.41 -142.47 L 1790.41 -20.549 L 1680.818 6.849 L 1519.856 6.849 L 1427.389 -75.344 L 1427.389 -174.662 L 1461.636 -226.032 L 1694.518 -339.049 L 1694.518 -380.146 L 1673.969 -407.544 L 1550.68 -407.544 L 1447.937 -330.145 L 1423.963 -336.995 L 1430.813 -458.914 L 1540.404 -486.313 L 1718.491 -486.313 L 1810.96 -404.118 L 1810.96 -304.802 Z M 1269.852 -0.001 L 1235.603 -41.097 L 1235.603 -78.77 L 1269.852 -119.866 L 1314.371 -119.866 L 1276.698 -171.237 L 1338.345 -171.237 L 1372.593 -95.893 L 1372.593 -41.097 L 1338.345 -0.001 Z M 780.118 -0.001 L 747.925 -135.62 L 771.897 -142.47 L 876.694 -78.77 L 916.421 -78.77 L 916.421 -407.544 L 882.175 -455.491 L 889.024 -479.464 L 1060.262 -479.464 L 1067.111 -455.491 L 1032.862 -407.544 L 1032.862 -78.77 L 1072.59 -78.77 L 1177.387 -142.47 L 1201.359 -135.62 L 1169.168 -0.001 Z M 720.528 -23.974 L 713.679 -0.001 L 556.142 -0.001 L 549.291 -23.974 L 583.539 -71.92 L 583.539 -205.485 L 586.278 -305.486 L 429.426 -34.247 L 388.329 -0.001 L 244.489 -0.001 L 237.64 -23.974 L 271.888 -71.92 L 271.888 -407.544 L 237.64 -455.491 L 244.489 -479.464 L 402.027 -479.464 L 408.877 -455.491 L 374.63 -407.544 L 374.63 -273.98 L 371.891 -162.332 L 535.593 -428.091 L 549.291 -479.464 L 713.679 -479.464 L 720.528 -455.491 L 686.281 -407.544 L 686.281 -71.92 Z M -306.885 -71.92 L -306.885 -407.544 L -272.637 -455.491 L -279.486 -479.464 L -450.724 -479.464 L -457.573 -455.491 L -423.326 -407.544 L -423.326 -273.98 L -419.901 -138.359 L -502.095 -339.049 L -515.793 -407.544 L -580.863 -407.544 L -615.11 -366.447 L -711.003 -138.359 L -707.58 -273.98 L -707.58 -407.544 L -673.332 -455.491 L -680.18 -479.464 L -834.294 -479.464 L -841.144 -455.491 L -806.896 -407.544 L -806.896 -71.92 L -841.144 -23.974 L -834.294 -0.001 L -663.058 -0.001 L -628.81 -41.097 L -553.466 -236.992 L -454.148 -0.001 L -279.486 -0.001 L -272.637 -23.974 Z" style="fill: rgb(255, 255, 255); fill-opacity: 1;"/>
      </g>
    </g>
  </g>
</svg>