<?xml version="1.0" encoding="UTF-8"?>
<svg width="118px" height="143px" viewBox="0 0 118 143" version="1.1" xmlns="http://www.w3.org/2000/svg" xmlns:xlink="http://www.w3.org/1999/xlink">
    <title>Group 38</title>
    <defs>
        <polygon id="path-1" points="0 142.670466 117.902041 142.670466 117.902041 0 0 0"></polygon>
    </defs>
    <g id="Navigation-+-Menus" stroke="none" stroke-width="1" fill="none" fill-rule="evenodd">
        <g id="Global-Navigation-Menu" transform="translate(-196.000000, -23.000000)">
            <rect id="Rectangle" fill="#FFFFFF" x="0" y="0" width="1692" height="185"></rect>
            <g id="Group-38" transform="translate(196.000000, 23.000000)">
                <path d="M22.6400018,55.5890398 C23.5337265,54.4634615 24.6743356,53.9007587 26.064075,53.9007587 C27.5438261,53.9007587 28.6602477,54.3388963 29.41334,55.2153444 C30.1652228,56.0919652 30.5504937,57.3882375 30.5665611,59.0996694 L30.5665611,67.5718275 L26.3743649,67.5718275 L26.3743649,59.1988378 C26.3743649,58.4861731 26.2290676,57.9647616 25.9395098,57.6280384 C25.6501247,57.2935611 25.1587748,57.1275318 24.4633868,57.1275318 C23.6042155,57.1275318 22.9964205,57.3996401 22.6400018,57.9464483 L22.6400018,67.5718275 L18.4604176,67.5718275 L18.4604176,48.5169871 L22.6400018,48.5169871 L22.6400018,55.5890398 Z" id="Fill-1" fill="#00A5DF"></path>
                <path d="M36.2915652,60.9957031 C36.2915652,62.2366899 36.4852372,63.1478641 36.8739634,63.726807 C37.2626896,64.3057499 37.8381772,64.5939256 38.5992167,64.5939256 C40.0870878,64.5939256 40.8483001,63.450034 40.8816442,61.1572404 L40.8816442,60.7374161 C40.8816442,58.3292141 40.1124846,57.1276182 38.5738199,57.1276182 C37.1761332,57.1276182 36.4195857,58.1656035 36.3041772,60.2391555 L36.2915652,60.9957031 Z M32.1107716,60.7374161 C32.1107716,59.3972609 32.3714773,58.2048217 32.892716,57.1575069 C33.4141274,56.1126108 34.1625549,55.3076884 35.1381713,54.7448129 C36.1139605,54.1821101 37.2592343,53.9006723 38.5738199,53.9006723 C40.5829297,53.9006723 42.1663411,54.5234981 43.3243997,55.7689769 C44.4822855,57.0122097 45.0612284,58.7053283 45.0612284,60.8481599 L45.0612284,60.9957031 C45.0612284,63.0901599 44.4798668,64.7485523 43.3185256,65.9779637 C42.1571845,67.2049564 40.5829297,67.8186255 38.5992167,67.8186255 C36.6882387,67.8186255 35.1544114,67.2465933 33.9965256,66.1001101 C32.8386398,64.9560457 32.2146047,63.4037324 32.1235564,61.4431701 L32.1107716,60.7374161 Z" id="Fill-3" fill="#00A5DF"></path>
                <polygon id="Fill-5" fill="#00A5DF" points="58.2421912 62.0636808 59.593749 54.1497335 63.6003933 54.1497335 60.436853 67.5718448 56.902036 67.5718448 54.6819775 59.607104 52.4491341 67.5718448 48.9131078 67.5718448 45.7507769 54.1497335 49.7574211 54.1497335 51.0847915 62.2506149 53.2184665 54.1497335 56.1328764 54.1497335"></polygon>
                <path d="M69.7843707,64.8430559 C70.3044,64.8430559 70.7370091,64.7300662 71.080643,64.5063327 C71.4230676,64.2850179 71.6687426,64.0312228 71.8176679,63.7497851 L71.8176679,61.6047075 L70.6020779,61.6047075 C69.1465142,61.6047075 68.4188187,62.257422 68.4188187,63.5652697 C68.4188187,63.9458758 68.5480486,64.2527104 68.8040896,64.4878466 C69.0601306,64.7254015 69.3864878,64.8430559 69.7843707,64.8430559 L69.7843707,64.8430559 Z M72.4011028,67.5717411 C72.2523502,67.2973868 72.1198378,66.8982946 72.0044293,66.3677265 C71.2350969,67.336605 70.1603122,67.8186255 68.7786928,67.8186255 C67.5135186,67.8186255 66.4385611,67.4380193 65.553993,66.6721423 C64.6695977,65.9064381 64.2266225,64.944643 64.2266225,63.7867572 C64.2266225,62.3336123 64.7641013,61.233258 65.8388861,60.4882858 C66.9138436,59.7431408 68.476523,59.3718641 70.5283063,59.3718641 L71.8176679,59.3718641 L71.8176679,58.6614454 C71.8176679,57.4228773 71.2848539,56.8047163 70.2180164,56.8047163 C69.2261599,56.8047163 68.7291086,57.2936474 68.7291086,58.2739286 L64.5495245,58.2739286 C64.5495245,56.9776562 65.1008246,55.9258495 66.2056709,55.1162624 C67.3093078,54.3066753 68.7175332,53.9006723 70.4289652,53.9006723 C72.1405698,53.9006723 73.4921277,54.3182507 74.4851936,55.1532346 C75.4770501,55.9904644 75.9856767,57.1345288 76.0110735,58.5899198 L76.0110735,64.5317294 C76.0271408,65.7633868 76.2173575,66.7068685 76.5818963,67.359583 L76.5818963,67.5717411 L72.4011028,67.5717411 Z" id="Fill-7" fill="#00A5DF"></path>
                <path d="M86.1888067,57.9325406 L84.8116794,57.8333722 C83.4969209,57.8333722 82.6539898,58.2462858 82.2813309,59.074359 L82.2813309,67.5717411 L78.1007101,67.5717411 L78.1007101,54.1498026 L82.020798,54.1498026 L82.1569385,55.87281 C82.8602738,54.5580515 83.8395183,53.9006723 85.0965725,53.9006723 C85.5440395,53.9006723 85.9327657,53.9514659 86.2637877,54.0506343 L86.1888067,57.9325406 Z" id="Fill-9" fill="#00A5DF"></path>
                <path d="M90.8596026,61.0210826 C90.8596026,63.4038878 91.553954,64.5939083 92.9436934,64.5939083 C93.8697256,64.5939083 94.5315968,64.2063915 94.928443,63.4291119 L94.928443,58.3177941 C94.5478369,57.5242744 93.893913,57.1276009 92.9678808,57.1276009 C91.6785192,57.1276009 90.9795031,58.1678322 90.8722146,60.2529596 L90.8596026,61.0210826 Z M86.6789818,60.7603769 C86.6789818,58.6360313 87.1378515,56.9613988 88.0559365,55.7366521 C88.9740214,54.5141514 90.255263,53.9006551 91.9010433,53.9006551 C93.1003933,53.9006551 94.1096993,54.3735189 94.928443,55.3145818 L94.928443,48.5170562 L99.1206392,48.5170562 L99.1206392,67.5718966 L95.3620887,67.5718966 L95.1509672,66.1324003 C94.2917959,67.2581514 93.1995616,67.8186082 91.8768559,67.8186082 C90.2806597,67.8186082 89.0154855,67.2073578 88.0813332,65.9826111 C87.1459716,64.7601104 86.6789818,63.018617 86.6789818,60.7603769 L86.6789818,60.7603769 Z" id="Fill-11" fill="#00A5DF"></path>
                <path d="M25.5854925,87.6076747 C25.5854925,87.2524653 25.3997678,86.9687816 25.0274545,86.7519587 C24.656005,86.5375546 23.9490416,86.3136483 22.9063915,86.0830041 C21.8649508,85.8523599 21.0045701,85.5479441 20.3264589,85.1720026 C19.6483476,84.7960612 19.1317736,84.3370187 18.7763915,83.79954 C18.4201455,83.2620612 18.2425408,82.6463189 18.2425408,81.9519675 C18.2425408,80.7203101 18.7511675,79.7053028 19.7684208,78.9072911 C20.7855013,78.1091066 22.1163271,77.7101871 23.7621075,77.7101871 C25.532453,77.7101871 26.9544999,78.1115253 28.0294574,78.911783 C29.1042422,79.7144594 29.6427575,80.7686849 29.6427575,82.0765327 L25.449352,82.0765327 C25.449352,81.0015751 24.8831939,80.4642691 23.7505321,80.4642691 C23.3123944,80.4642691 22.9444003,80.5864155 22.6456858,80.8286351 C22.3481807,81.0731007 22.1994281,81.3775165 22.1994281,81.7420553 C22.1994281,82.1135048 22.3816975,82.4155019 22.7450269,82.6463189 C23.109393,82.8792091 23.6907546,83.0683892 24.4887663,83.2183511 C25.286778,83.3658943 25.9868307,83.543499 26.5911704,83.7511652 C28.6084003,84.4453438 29.6173608,85.6909953 29.6173608,87.4853555 C29.6173608,88.708029 29.0741807,89.7043775 27.9866111,90.4747464 C26.8992143,91.2428694 25.4909889,91.6281403 23.7621075,91.6281403 C22.6135511,91.6281403 21.5869684,91.4204741 20.6863329,91.0075605 C19.7844881,90.5948196 19.0820167,90.0319441 18.5780548,89.3215253 C18.0730562,88.6086878 17.8204706,87.8614697 17.8204706,87.0748606 L21.7277736,87.0748606 C21.7450504,87.6952676 21.9515072,88.1475722 22.3481807,88.4335019 C22.7450269,88.7196044 23.2534808,88.8624829 23.8740606,88.8624829 C24.4448835,88.8624829 24.8728278,88.7448284 25.1575482,88.5141842 C25.4436507,88.28354 25.5854925,87.9813701 25.5854925,87.6076747" id="Fill-13" fill="#00A5DF"></path>
                <path d="M34.9698269,84.8051833 C34.9698269,86.0461701 35.1636717,86.9549256 35.5522252,87.5338685 C35.9409514,88.1128114 36.5164389,88.4035786 37.2776512,88.4035786 C38.7653496,88.4035786 39.5265619,87.2570955 39.559906,84.9667206 L39.559906,84.5446504 C39.559906,82.1386943 38.7907464,80.9348524 37.2522545,80.9348524 C35.854395,80.9348524 35.0978474,81.972665 34.9826117,84.0486357 L34.9698269,84.8051833 Z M30.7892061,84.5446504 C30.7892061,83.2044952 31.0499119,82.0120559 31.5711505,80.9669871 C32.0923892,79.9198451 32.8408167,79.1147499 33.8166059,78.5542931 C34.7922223,77.9915903 35.937496,77.7101526 37.2522545,77.7101526 C39.2611915,77.7101526 40.8447757,78.3329783 42.0026615,79.5762111 C43.1605473,80.8216899 43.7394902,82.5148085 43.7394902,84.6552214 L43.7394902,84.8051833 C43.7394902,86.8972214 43.1583013,88.5580325 41.9967874,89.785198 C40.8354463,91.0144366 39.2611915,91.6281057 37.2776512,91.6281057 C35.3665004,91.6281057 33.8326732,91.0560735 32.6747874,89.9095903 C31.5169016,88.7632799 30.8930392,87.2109666 30.8018182,85.2526504 L30.7892061,84.5446504 Z" id="Fill-15" fill="#00A5DF"></path>
                <path d="M51.0029344,88.4035095 C51.5899974,88.4035095 52.0455845,88.2443909 52.367277,87.925981 C52.6901789,87.6077438 52.8470515,87.1625227 52.8389315,86.5904905 L56.7590193,86.5904905 C56.7590193,88.0643675 56.2320794,89.2708009 55.1766445,90.2141098 C54.1225918,91.1551728 52.7639505,91.6280366 51.1021028,91.6280366 C49.1506972,91.6280366 47.612378,91.0167862 46.4878363,89.7920395 C45.3632946,88.5672928 44.8005918,86.8719283 44.8005918,84.7061186 L44.8005918,84.5330059 C44.8005918,83.1767833 45.0507587,81.9796794 45.5512653,80.941694 C46.0519447,79.9037086 46.7727294,79.1056969 47.7160384,78.5474861 C48.6583107,77.9892753 49.7747324,77.7100835 51.0651306,77.7100835 C52.8100794,77.7100835 54.1953268,78.1945227 55.2205274,79.1609824 C56.2459007,80.1296881 56.7590193,81.4399546 56.7590193,83.0936823 L52.8389315,83.0936823 C52.8389315,82.3995037 52.6694469,81.8642709 52.3304776,81.4928214 C51.9913356,81.1215447 51.5369578,80.9347833 50.966135,80.9347833 C49.8820208,80.9347833 49.2500384,81.62447 49.067769,83.0060893 C49.0100647,83.4442269 48.9812126,84.0485666 48.9812126,84.8166896 C48.9812126,86.1660015 49.1425772,87.1003265 49.4644425,87.6215652 C49.7873444,88.1428038 50.3006357,88.4035095 51.0029344,88.4035095" id="Fill-17" fill="#00A5DF"></path>
                <mask id="mask-2" fill="white">
                    <use xlink:href="#path-1"></use>
                </mask>
                <g id="Clip-20"></g>
                <polygon id="Fill-19" fill="#00A5DF" mask="url(#mask-2)" points="58.490164 91.3789927 62.6823602 91.3789927 62.6823602 77.9570542 58.490164 77.9570542"></polygon>
                <path d="M71.0240963,80.9347833 C69.8003862,80.9347833 69.0726908,81.7443704 68.84101,83.3659634 L73.0584302,83.3659634 L73.0584302,83.0430615 C73.0746703,82.3741069 72.9051857,81.8551142 72.5499763,81.4859107 C72.1947669,81.1192987 71.6861403,80.9347833 71.0240963,80.9347833 M71.4957508,91.6280366 C69.4372296,91.6280366 67.7707171,91.0145403 66.4962135,89.7851288 C65.2230919,88.5581362 64.5864448,86.9595212 64.5864448,84.9920483 L64.5864448,84.6437496 C64.5864448,83.271287 64.8412764,82.0603616 65.3499031,81.0085549 C65.8585297,79.9591669 66.6000466,79.1471611 67.5758357,78.5728829 C68.5514521,77.9961859 69.7093379,77.7100835 71.0494931,77.7100835 C72.9350744,77.7100835 74.4227728,78.2961098 75.515007,79.4653982 C76.6060319,80.6348594 77.1526673,82.2656091 77.1526673,84.3576471 L77.1526673,85.9839048 L68.84101,85.9839048 C68.9897625,86.7357877 69.3173291,87.328552 69.8212911,87.7577057 C70.325253,88.1866867 70.9791769,88.4035095 71.7806439,88.4035095 C73.104559,88.4035095 74.1380524,87.9398023 74.881988,87.0125608 L76.792966,89.2708009 C76.2715546,89.9903763 75.5334931,90.5624085 74.5786088,90.9891435 C73.6235517,91.4136325 72.5961051,91.6280366 71.4957508,91.6280366" id="Fill-21" fill="#00A5DF" mask="url(#mask-2)"></path>
                <path d="M83.4474059,74.6216105 L83.4474059,77.9568814 L85.655889,77.9568814 L85.655889,80.8609253 L83.4474059,80.8609253 L83.4474059,87.0010717 C83.4474059,87.506243 83.5384542,87.8567877 83.7207236,88.0551245 C83.9017836,88.2534612 84.2616577,88.3528023 84.7991365,88.3528023 C85.2130867,88.3528023 85.560176,88.3274056 85.8416138,88.278858 L85.8416138,91.2682489 C85.0885215,91.5082225 84.3031218,91.628123 83.4842053,91.628123 C82.0460911,91.628123 80.9827089,91.288981 80.2966504,90.6108697 C79.610419,89.9327584 79.2667851,88.9039297 79.2667851,87.5223104 L79.2667851,80.8609253 L77.5553531,80.8609253 L77.5553531,77.9568814 L79.2667851,77.9568814 L79.2667851,74.6216105 L83.4474059,74.6216105 Z" id="Fill-22" fill="#00A5DF" mask="url(#mask-2)"></path>
                <path d="M92.4096182,85.5248451 L94.6424615,77.9569505 L99.1205874,77.9569505 L93.650605,93.6255537 L93.4140867,94.19534 C92.636807,95.9321687 91.2645171,96.79946 89.2968714,96.79946 C88.750236,96.79946 88.1759578,96.7187777 87.5726548,96.5527485 L87.5726548,93.5749329 L88.1182536,93.5749329 C88.7053165,93.5749329 89.1538202,93.4895859 89.4641101,93.3211379 C89.7744,93.1504439 90.0038348,92.8458553 90.1527602,92.4077177 L90.4870647,91.5150296 L85.8232141,77.9569505 L90.288728,77.9569505 L92.4096182,85.5248451 Z" id="Fill-23" fill="#00A5DF" mask="url(#mask-2)"></path>
                <path d="M56.9008958,28.8797312 L56.9008958,42.7607122 C56.8927757,44.3499977 56.438398,45.5724984 55.5365531,46.4328791 C54.6359177,47.2932597 53.3786908,47.7222407 51.7652179,47.7222407 C51.0710392,47.7222407 49.9634287,47.5249406 49.4955751,47.3725599 L49.4955751,44.2801997 C49.9183365,44.370557 50.2797654,44.4607414 50.9718709,44.4607414 C52.1297567,44.4607414 52.7086996,43.8862905 52.7086996,42.7353154 L52.7086996,28.8797312 L56.9008958,28.8797312 Z" id="Fill-24" fill="#00A5DF" mask="url(#mask-2)"></path>
                <path d="M62.6638741,35.7279467 C62.6638741,36.9689335 62.8577189,37.877689 63.2462723,38.4566319 C63.6349985,39.0355748 64.2104861,39.3261693 64.9715256,39.3261693 C66.4593968,39.3261693 67.2206091,38.1798589 67.2539531,35.889484 L67.2539531,35.467241 C67.2539531,33.0616305 66.4847936,31.857443 64.9463016,31.857443 C63.5484422,31.857443 62.7918946,32.8954284 62.6766589,34.9713991 L62.6638741,35.7279467 Z M58.4832533,35.467241 C58.4832533,34.1272586 58.743959,32.9346466 59.2651977,31.8897505 C59.7864363,30.8426085 60.5348638,30.0376861 61.510653,29.4770565 C62.4862694,28.9143537 63.6315432,28.632916 64.9463016,28.632916 C66.9552387,28.632916 68.5388228,29.2557417 69.6967086,30.4989745 C70.8545944,31.7444533 71.4335373,33.4375719 71.4335373,35.5779848 L71.4335373,35.7279467 C71.4335373,37.8199848 70.8523485,39.4807959 69.6908346,40.7077886 C68.5294934,41.9373728 66.9552387,42.5508691 64.9715256,42.5508691 C63.0605476,42.5508691 61.5267204,41.9788369 60.3688346,40.8325265 C59.2109488,39.6860433 58.5869136,38.13373 58.4958653,36.1754138 L58.4832533,35.467241 Z" id="Fill-25" fill="#00A5DF" mask="url(#mask-2)"></path>
                <path d="M77.1077306,30.3190202 C78.0014553,29.1956878 79.1420644,28.6328123 80.5318038,28.6328123 C82.0115549,28.6328123 83.1279766,29.0711227 83.8810688,29.9477435 C84.6329517,30.8241915 85.0182225,32.1182179 85.0342899,33.8296498 L85.0342899,42.3018079 L80.8420937,42.3018079 L80.8420937,33.9288182 C80.8420937,33.2183994 80.6967965,32.694742 80.4074114,32.3602647 C80.1178536,32.0259602 79.6265037,31.8575122 78.9311157,31.8575122 C78.0719444,31.8575122 77.4641493,32.1296205 77.1077306,32.6764287 L77.1077306,42.3018079 L72.9281464,42.3018079 L72.9281464,23.2493862 L77.1077306,23.2493862 L77.1077306,30.3190202 Z" id="Fill-26" fill="#00A5DF" mask="url(#mask-2)"></path>
                <path d="M90.9460726,28.8797312 L91.0832498,30.4551953 C92.0094548,29.2396053 93.2860316,28.6328469 94.9157447,28.6328469 C96.3134313,28.6328469 97.3572908,29.0504252 98.0480141,29.8854091 C98.7389101,30.720393 99.0963654,31.9774471 99.1205529,33.6565716 L99.1205529,42.3016697 L94.9283567,42.3016697 L94.9283567,33.8296843 C94.9283567,33.1515731 94.7923889,32.6533124 94.5190712,32.3350753 C94.2457534,32.0166653 93.7497388,31.8575467 93.0301634,31.8575467 C92.2112469,31.8575467 91.6034518,32.1804486 91.2067783,32.8262524 L91.2067783,42.3016697 L87.0261575,42.3016697 L87.0261575,28.8797312 L90.9460726,28.8797312 Z" id="Fill-27" fill="#00A5DF" mask="url(#mask-2)"></path>
                <path d="M57.1230053,24.5496149 C57.1230053,25.8595359 56.061178,26.9215359 54.7510843,26.9215359 C53.4411634,26.9215359 52.3793362,25.8595359 52.3793362,24.5496149 C52.3793362,23.239694 53.4411634,22.177694 54.7510843,22.177694 C56.061178,22.177694 57.1230053,23.239694 57.1230053,24.5496149" id="Fill-28" fill="#FFCD00" mask="url(#mask-2)"></path>
                <path d="M62.8909766,74.0283971 C62.8909766,75.338318 61.8291493,76.400318 60.5190556,76.400318 C59.2091347,76.400318 58.1471347,75.338318 58.1471347,74.0283971 C58.1471347,72.7184761 59.2091347,71.6564761 60.5190556,71.6564761 C61.8291493,71.6564761 62.8909766,72.7184761 62.8909766,74.0283971" id="Fill-29" fill="#FFCD00" mask="url(#mask-2)"></path>
                <path d="M0.86983104,-1.72767203e-05 C0.39040205,-1.72767203e-05 -5.18301611e-05,0.389918302 -5.18301611e-05,0.869347291 L0.00219414348,114.937511 L0.0167065886,115.05603 C0.0668090776,115.315699 0.15129224,115.540296 0.368287848,115.693368 L36.5821941,141.282091 C36.8434182,141.466088 37.200528,141.490621 37.4854211,141.343251 C37.7744606,141.194153 37.9536202,140.898202 37.9536202,140.571845 L37.9536202,115.794609 L117.033316,115.794609 C117.512745,115.794609 117.901989,115.404674 117.901989,114.925245 L117.901989,42.301687 L113.230018,42.301687 L113.230018,111.176024 L4.67191889,111.176024 L4.67191889,4.61908668 L52.7086305,4.61908668 L52.7086305,-1.72767203e-05 L0.86983104,-1.72767203e-05 Z" id="Fill-30" fill="#00A5DF" mask="url(#mask-2)"></path>
                <path d="M57.5582922,137.557299 C57.5582922,139.593706 58.5869482,141.211844 60.3298237,141.211844 C62.0901488,141.211844 63.0873611,139.572974 63.0873611,137.485083 C63.0873611,135.601575 62.153036,133.823109 60.3341429,133.823109 C58.5295895,133.823109 57.5582922,135.507416 57.5582922,137.557299 M65.0126788,137.417531 C65.0126788,140.759539 62.9868105,142.670517 60.2370477,142.670517 C57.418178,142.670517 55.6328018,140.516974 55.6328018,137.594271 C55.6328018,134.530245 57.5691766,132.364435 60.3844182,132.364435 C63.2957183,132.364435 65.0126788,134.564453 65.0126788,137.417531" id="Fill-31" fill="#00A5DF" mask="url(#mask-2)"></path>
                <path d="M66.558807,137.442565 C66.558807,136.609827 66.5323736,135.923077 66.4995479,135.298869 L68.0922887,135.298869 L68.1821277,136.381083 L68.2242829,136.381083 C68.5433839,135.821663 69.3239461,135.13595 70.5215684,135.13595 C71.7784498,135.13595 73.0842243,135.945364 73.0842243,138.225718 L73.0842243,142.507581 L71.2599754,142.507581 L71.2599754,138.440295 C71.2599754,137.405765 70.8804059,136.617947 69.8845757,136.617947 C69.1589534,136.617947 68.6572375,137.130029 68.4665025,137.687376 C68.4105259,137.836647 68.3828832,138.058307 68.3828832,138.2658 L68.3828832,142.507581 L66.558807,142.507581 L66.558807,137.442565 Z" id="Fill-32" fill="#00A5DF" mask="url(#mask-2)"></path>
                <path d="M77.0402477,133.234232 L77.0402477,135.2988 L78.7744849,135.2988 L78.7744849,136.656923 L77.0402477,136.656923 L77.0402477,139.838086 C77.0402477,140.720062 77.2752111,141.168566 77.9724996,141.168566 C78.2841716,141.168566 78.5180984,141.133148 78.6804996,141.089093 L78.717299,142.475895 C78.443463,142.578519 77.9654161,142.663175 77.3906196,142.663175 C76.7208012,142.663175 76.1627631,142.434949 75.8239666,142.069201 C75.4324761,141.655078 75.2540076,140.991652 75.2540076,140.047134 L75.2540076,136.656923 L74.2253517,136.656923 L74.2253517,135.2988 L75.2540076,135.2988 L75.2540076,133.665977 L77.0402477,133.234232 Z" id="Fill-33" fill="#00A5DF" mask="url(#mask-2)"></path>
                <path d="M83.965863,138.977066 C82.6797839,138.959962 81.4495086,139.231206 81.4495086,140.328796 C81.4495086,141.03455 81.9125247,141.3673 82.4885306,141.3673 C83.2160533,141.3673 83.740229,140.897546 83.9150694,140.369742 C83.9542876,140.243104 83.965863,140.09988 83.965863,139.973587 L83.965863,138.977066 Z M84.2072187,142.507736 L84.0824808,141.704541 L84.038598,141.704541 C83.6016697,142.273464 82.8473681,142.670483 81.9142524,142.670483 C80.4516053,142.670483 79.6414999,141.62576 79.6414999,140.526442 C79.6414999,138.707203 81.262229,137.786181 83.9174881,137.797066 L83.9174881,137.677683 C83.9174881,137.203956 83.729863,136.416137 82.4538044,136.420802 C81.7475321,136.420802 81.0070518,136.648509 80.5155291,136.958626 L80.1544457,135.775862 C80.6990079,135.44484 81.6324691,135.136105 82.7673769,135.136105 C85.0795204,135.136105 85.7394911,136.593742 85.7394911,138.175253 L85.7394911,140.771253 C85.7394911,141.426559 85.7721441,142.062342 85.851617,142.507736 L84.2072187,142.507736 Z" id="Fill-34" fill="#00A5DF" mask="url(#mask-2)"></path>
                <path d="M87.6728597,137.616524 C87.6728597,136.650928 87.6528187,135.9412 87.6136006,135.298852 L89.1920018,135.298852 L89.2597265,136.668896 L89.3108656,136.668896 C89.666075,135.653543 90.5065874,135.136105 91.2842126,135.136105 C91.4621628,135.136105 91.5663414,135.143016 91.7119842,135.175669 L91.7119842,136.892284 C91.5561482,136.859458 91.3972023,136.840454 91.1776152,136.840454 C90.3092873,136.840454 89.7066753,137.393309 89.543583,138.219481 C89.5128305,138.3805 89.4969359,138.573136 89.4969359,138.769054 L89.4969359,142.507736 L87.6728597,142.507736 L87.6728597,137.616524 Z" id="Fill-35" fill="#00A5DF" mask="url(#mask-2)"></path>
                <path d="M92.9605037,142.507719 L94.7845798,142.507719 L94.7845798,135.298835 L92.9605037,135.298835 L92.9605037,142.507719 Z M94.891358,133.281259 C94.8934231,133.825649 94.4981318,134.264477 93.852328,134.264477 C93.2479883,134.264477 92.8514876,133.825649 92.853724,133.281259 C92.8514876,132.725813 93.2618097,132.295968 93.8740966,132.295968 C94.4932943,132.295968 94.8851303,132.720975 94.891358,133.281259 L94.891358,133.281259 Z" id="Fill-36" fill="#00A5DF" mask="url(#mask-2)"></path>
                <path d="M98.1627315,138.910758 C98.1627315,140.297905 98.8551824,141.346257 99.9551912,141.346257 C101.00026,141.346257 101.726055,140.337469 101.726055,138.886743 C101.726055,137.753908 101.224857,136.460228 99.9667666,136.460228 C98.6874255,136.460228 98.1627315,137.708816 98.1627315,138.910758 M103.599715,138.832494 C103.599715,141.48257 101.740049,142.670517 99.8964504,142.670517 C97.8628076,142.670517 96.2890712,141.266957 96.2890712,138.956714 C96.2890712,136.591876 97.8465675,135.135967 100.019115,135.135967 C102.164365,135.135967 103.599715,136.647162 103.599715,138.832494" id="Fill-37" fill="#00A5DF" mask="url(#mask-2)"></path>
            </g>
        </g>
    </g>
</svg>